<svg xmlns="http://www.w3.org/2000/svg" xmlns:xlink="http://www.w3.org/1999/xlink" width="1024" zoomAndPan="magnify" viewBox="0 0 768 767.999994" height="1024" preserveAspectRatio="xMidYMid meet" version="1.0"><defs><clipPath id="43d8fd2270"><path d="M 0 0 L 768 0 L 768 603.75 L 0 603.75 Z M 0 0 " clip-rule="nonzero"/></clipPath></defs><g clip-path="url(#43d8fd2270)"><path fill="#9d8779" d="M 659.929688 55.050781 L 108.070312 55.050781 L 367.277344 254.414062 C 377.132812 261.996094 390.863281 261.996094 400.722656 254.414062 Z M 54.855469 83.324219 L 54.855469 548.699219 L 713.144531 548.699219 L 713.144531 83.324219 L 434.167969 297.886719 C 404.589844 320.636719 363.40625 320.636719 333.828125 297.886719 Z M 0 55.050781 C 0 24.757812 24.558594 0.203125 54.855469 0.203125 L 713.144531 0.203125 C 743.441406 0.203125 768 24.757812 768 55.050781 L 768 548.699219 C 768 578.992188 743.441406 603.546875 713.144531 603.546875 L 54.855469 603.546875 C 24.558594 603.546875 0 578.992188 0 548.699219 Z M 0 55.050781 " fill-opacity="1" fill-rule="evenodd"/></g></svg>