<svg xmlns="http://www.w3.org/2000/svg" xmlns:xlink="http://www.w3.org/1999/xlink" width="1024" zoomAndPan="magnify" viewBox="0 0 768 767.999994" height="1024" preserveAspectRatio="xMidYMid meet" version="1.0"><defs><clipPath id="4cf880116a"><path d="M 0 1.394531 L 768 1.394531 L 768 767.894531 L 0 767.894531 Z M 0 1.394531 " clip-rule="nonzero"/></clipPath></defs><g clip-path="url(#4cf880116a)"><path fill="#9d8779" d="M 384.917969 1.660156 C 172.296875 1.660156 0 173.914062 0 386.480469 C 0 577.386719 139.304688 735.980469 321.597656 765.964844 L 321.597656 505.089844 L 223.617188 505.089844 L 223.617188 390.808594 L 321.597656 390.808594 L 321.597656 307.851562 C 321.597656 217.890625 394.582031 156.921875 484.5625 156.921875 C 524.554688 156.921875 549.546875 162.917969 549.546875 162.917969 L 549.546875 258.871094 L 484.5625 258.871094 C 457.566406 258.871094 435.574219 280.863281 435.574219 307.847656 L 435.574219 390.808594 L 540.550781 390.808594 L 525.886719 505.089844 L 435.574219 505.089844 L 435.574219 767.628906 C 623.863281 742.644531 769.167969 581.386719 769.167969 386.480469 C 769.5 173.914062 597.203125 1.660156 384.917969 1.660156 Z M 384.917969 1.660156 " fill-opacity="1" fill-rule="nonzero"/></g></svg>