<svg xmlns="http://www.w3.org/2000/svg" xmlns:xlink="http://www.w3.org/1999/xlink" width="1024" zoomAndPan="magnify" viewBox="0 0 768 767.999994" height="1024" preserveAspectRatio="xMidYMid meet" version="1.0"><defs><clipPath id="48946a076d"><path d="M 101.339844 0 L 639.089844 0 L 639.089844 768 L 101.339844 768 Z M 101.339844 0 " clip-rule="nonzero"/></clipPath></defs><g clip-path="url(#48946a076d)"><path fill="#9d8779" d="M 370.214844 0 C 221.757812 0 101.339844 120.386719 101.339844 268.800781 C 101.339844 470.398438 370.214844 768 370.214844 768 C 370.214844 768 639.089844 470.398438 639.089844 268.800781 C 639.089844 120.386719 518.671875 0 370.214844 0 Z M 370.214844 364.800781 C 317.207031 364.800781 274.1875 321.792969 274.1875 268.800781 C 274.1875 215.808594 317.207031 172.800781 370.214844 172.800781 C 423.21875 172.800781 466.242188 215.808594 466.242188 268.800781 C 466.242188 321.792969 423.21875 364.800781 370.214844 364.800781 Z M 370.214844 364.800781 " fill-opacity="1" fill-rule="nonzero"/></g></svg>