<svg xmlns="http://www.w3.org/2000/svg" xmlns:xlink="http://www.w3.org/1999/xlink" width="1024" zoomAndPan="magnify" viewBox="0 0 768 767.999994" height="1024" preserveAspectRatio="xMidYMid meet" version="1.0"><path fill="#9d8779" d="M 225.816406 0 C 101.863281 0 0 101.726562 0 225.816406 L 0 542.183594 C 0 666.136719 101.726562 768 225.816406 768 L 542.183594 768 C 666.136719 768 768 666.273438 768 542.183594 L 768 225.816406 C 768 101.863281 666.273438 0 542.183594 0 Z M 225.816406 69.816406 L 542.183594 69.816406 C 628.5 69.816406 698.183594 139.5 698.183594 225.816406 L 698.183594 542.183594 C 698.183594 628.5 628.5 698.183594 542.183594 698.183594 L 225.816406 698.183594 C 139.5 698.183594 69.816406 628.5 69.816406 542.183594 L 69.816406 225.816406 C 69.816406 139.5 139.5 69.816406 225.816406 69.816406 Z M 590.183594 146.183594 C 572.589844 146.183594 558.546875 160.226562 558.546875 177.816406 C 558.546875 195.410156 572.589844 209.453125 590.183594 209.453125 C 607.773438 209.453125 621.816406 195.410156 621.816406 177.816406 C 621.816406 160.226562 607.773438 146.183594 590.183594 146.183594 Z M 384 174.546875 C 268.773438 174.546875 174.546875 268.773438 174.546875 384 C 174.546875 499.226562 268.773438 593.453125 384 593.453125 C 499.226562 593.453125 593.453125 499.226562 593.453125 384 C 593.453125 268.773438 499.226562 174.546875 384 174.546875 Z M 384 244.363281 C 461.589844 244.363281 523.636719 306.410156 523.636719 384 C 523.636719 461.589844 461.589844 523.636719 384 523.636719 C 306.410156 523.636719 244.363281 461.589844 244.363281 384 C 244.363281 306.410156 306.410156 244.363281 384 244.363281 Z M 384 244.363281 " fill-opacity="1" fill-rule="nonzero"/></svg>