<svg xmlns="http://www.w3.org/2000/svg" xmlns:xlink="http://www.w3.org/1999/xlink" width="1024" zoomAndPan="magnify" viewBox="0 0 768 767.999994" height="1024" preserveAspectRatio="xMidYMid meet" version="1.0"><defs><clipPath id="1b3395ab99"><path d="M 1.921875 0 L 766.171875 0 L 766.171875 768 L 1.921875 768 Z M 1.921875 0 " clip-rule="nonzero"/></clipPath></defs><g clip-path="url(#1b3395ab99)"><path fill="#9d8779" d="M 654.796875 111.605469 C 582.933594 39.601562 487.335938 0 385.535156 0 C 175.800781 0 5.101562 170.695312 5.101562 380.542969 C 5.101562 447.574219 22.660156 513.144531 55.933594 570.761719 L 1.921875 767.996094 L 203.699219 715.050781 C 259.335938 745.359375 321.9375 761.425781 385.488281 761.425781 L 385.644531 761.425781 C 595.378906 761.425781 766.230469 590.730469 766.230469 380.882812 C 766.230469 279.167969 726.628906 183.644531 654.765625 111.667969 Z M 385.644531 697.21875 C 328.804688 697.21875 273.132812 681.90625 224.542969 653.089844 L 212.960938 646.179688 L 93.230469 677.527344 L 125.214844 560.839844 L 117.71875 548.859375 C 85.886719 498.585938 69.265625 440.417969 69.265625 380.574219 C 69.265625 206.148438 211.179688 64.191406 385.8125 64.191406 C 470.253906 64.191406 549.8125 97.199219 609.496094 156.871094 C 669.207031 216.730469 702.035156 296.078125 702.035156 380.667969 C 701.894531 555.21875 559.984375 697.171875 385.613281 697.171875 Z M 559.0625 460.230469 C 549.613281 455.421875 502.792969 432.492188 494.113281 429.3125 C 485.417969 426.132812 479.089844 424.503906 472.636719 434.121094 C 466.339844 443.566406 448.058594 465.039062 442.480469 471.460938 C 436.90625 477.757812 431.390625 478.664062 421.941406 473.855469 C 412.496094 469.046875 381.726562 459.019531 345.441406 426.609375 C 317.222656 401.417969 298.082031 370.222656 292.503906 360.777344 C 286.925781 351.328125 291.890625 346.078125 296.726562 341.4375 C 301.105469 337.199219 306.191406 330.347656 310.984375 324.789062 C 315.792969 319.210938 317.28125 315.324219 320.445312 308.890625 C 323.625 302.59375 322.074219 297.015625 319.679688 292.238281 C 317.28125 287.449219 298.203125 240.628906 290.445312 221.570312 C 282.8125 202.9375 274.835938 205.53125 268.984375 205.210938 C 263.410156 204.933594 257.109375 204.933594 250.828125 204.933594 C 244.542969 204.933594 234.175781 207.316406 225.480469 216.792969 C 216.785156 226.238281 192.160156 249.339844 192.160156 296.140625 C 192.160156 342.941406 226.203125 388.101562 230.996094 394.535156 C 235.804688 400.820312 298.066406 496.972656 393.445312 538.105469 C 416.105469 547.84375 433.816406 553.710938 447.613281 558.226562 C 470.425781 565.417969 491.117188 564.371094 507.476562 561.960938 C 525.773438 559.273438 563.746094 538.996094 571.703125 516.785156 C 579.664062 494.5625 579.664062 475.546875 577.28125 471.613281 C 575.023438 467.375 568.738281 465.039062 559.125 460.167969 Z M 559.0625 460.230469 " fill-opacity="1" fill-rule="evenodd"/></g></svg>