<svg xmlns="http://www.w3.org/2000/svg" xmlns:xlink="http://www.w3.org/1999/xlink" width="1024" zoomAndPan="magnify" viewBox="0 0 768 767.999994" height="1024" preserveAspectRatio="xMidYMid meet" version="1.0"><path fill="#9d8779" d="M 375.378906 425.535156 C 342.765625 398.714844 320.988281 365.625 309.542969 346.792969 L 301.003906 330.695312 C 303.988281 327.488281 326.757812 303.105469 336.625 289.878906 C 349.027344 273.269531 331.046875 258.261719 331.046875 258.261719 C 331.046875 258.261719 280.457031 207.664062 268.925781 197.628906 C 257.398438 187.578125 244.125 193.160156 244.125 193.160156 C 219.894531 208.816406 194.769531 222.429688 193.269531 287.894531 C 193.210938 349.191406 239.738281 412.402344 290.054688 461.347656 C 340.449219 516.625 409.644531 572.019531 476.539062 571.953125 C 542 570.464844 555.605469 545.34375 571.265625 521.109375 C 571.265625 521.109375 576.851562 507.84375 566.8125 496.308594 C 556.765625 484.773438 506.167969 434.175781 506.167969 434.175781 C 506.167969 434.175781 491.171875 416.195312 474.558594 428.609375 C 462.167969 437.875 439.9375 458.453125 434.578125 463.449219 C 434.585938 463.457031 397.386719 443.628906 375.378906 425.535156 Z M 375.378906 425.535156 " fill-opacity="1" fill-rule="nonzero"/><path fill="#9d8779" d="M 384.089844 767.777344 C 172.410156 767.777344 0.195312 595.5625 0.195312 383.875 C 0.195312 172.191406 172.410156 -0.0234375 384.089844 -0.0234375 C 595.777344 -0.0234375 768 172.191406 768 383.875 C 768 595.5625 595.777344 767.777344 384.089844 767.777344 Z M 384.089844 37.839844 C 193.289062 37.839844 38.058594 193.074219 38.058594 383.875 C 38.058594 574.679688 193.289062 729.914062 384.089844 729.914062 C 574.894531 729.914062 730.136719 574.679688 730.136719 383.875 C 730.136719 193.074219 574.894531 37.839844 384.089844 37.839844 Z M 384.089844 37.839844 " fill-opacity="1" fill-rule="nonzero"/></svg>